<?xml version="1.0" standalone="no"?>
<!DOCTYPE svg PUBLIC "-//W3C//DTD SVG 20010904//EN"
 "http://www.w3.org/TR/2001/REC-SVG-20010904/DTD/svg10.dtd">
<svg version="1.0" xmlns="http://www.w3.org/2000/svg"
 width="500.000000pt" height="500.000000pt" viewBox="0 0 500.000000 500.000000"
 preserveAspectRatio="xMidYMid meet">

<g transform="translate(0.000000,500.000000) scale(0.100000,-0.100000)"
fill="#000000" stroke="none">
<path d="M2220 4485 c-224 -36 -405 -92 -595 -185 -539 -262 -945 -773 -1079
-1360 -62 -272 -62 -600 -1 -890 51 -237 176 -516 323 -718 321 -441 753 -714
1287 -813 100 -19 157 -23 340 -23 245 -1 349 12 540 66 416 117 754 342 1029
683 205 254 329 516 401 850 40 184 47 518 15 710 -50 295 -145 543 -300 785
l-55 85 -8 -69 c-8 -67 -8 -69 26 -125 130 -211 220 -464 258 -726 17 -115 17
-403 0 -520 -77 -546 -374 -1020 -837 -1335 -196 -134 -451 -239 -704 -291
-102 -21 -142 -24 -355 -24 -250 0 -287 4 -480 52 -700 173 -1268 771 -1405
1479 -112 581 36 1159 411 1609 311 372 734 605 1224 676 113 16 382 16 495 0
168 -24 338 -71 488 -135 l82 -35 -7 27 c-15 63 -33 90 -65 102 -174 64 -259
88 -408 116 -118 22 -504 28 -620 9z"/>
<path d="M3595 4383 c55 -135 69 -282 41 -419 -20 -99 -70 -230 -126 -326 -41
-70 -42 -75 -31 -116 6 -23 11 -52 11 -63 0 -18 2 -19 15 -9 24 20 128 180
160 245 16 32 31 53 33 46 7 -20 -95 -212 -154 -290 -29 -40 -54 -81 -54 -92
0 -10 -9 -41 -19 -69 l-19 -50 26 19 c15 11 57 50 93 88 204 212 288 385 289
596 0 150 -48 257 -171 380 -76 75 -109 96 -94 60z"/>
<path d="M2340 4343 c-79 -8 -240 -36 -310 -54 -298 -79 -580 -238 -806 -456
-314 -302 -528 -736 -560 -1135 l-7 -88 27 0 c23 0 26 4 26 38 0 52 25 202 50
295 87 329 232 581 474 823 127 126 166 158 293 242 212 139 445 227 723 273
98 17 414 16 510 0 185 -32 324 -75 498 -157 41 -19 76 -34 79 -34 2 0 3 12 1
27 -2 23 -15 33 -78 65 -151 75 -370 136 -565 158 -84 9 -276 11 -355 3z"/>
<path d="M3371 4243 c31 -117 23 -283 -20 -423 -9 -29 -7 -44 14 -96 14 -34
25 -68 26 -76 1 -25 37 70 54 143 23 99 23 100 24 53 1 -43 -29 -173 -54 -237
-46 -117 15 -31 94 132 l56 116 0 96 c0 90 -2 99 -38 171 -26 54 -54 92 -98
132 -33 31 -64 56 -68 56 -4 0 1 -30 10 -67z"/>
<path d="M3951 3894 c-16 -88 -64 -211 -115 -298 -44 -74 -177 -238 -226 -280
-29 -24 -30 -28 -24 -75 l7 -51 31 22 c17 11 78 68 134 125 105 105 110 109
60 40 -39 -55 -94 -113 -169 -179 -53 -46 -67 -65 -77 -104 -7 -25 -11 -48 -9
-50 2 -2 45 23 96 57 170 112 314 276 372 424 19 49 23 80 23 165 1 98 -1 109
-30 170 -54 111 -58 113 -73 34z"/>
<path d="M2176 3681 c-21 -21 -59 -49 -84 -62 -62 -31 -132 -78 -132 -89 0
-15 113 2 146 21 18 11 40 31 49 45 20 30 32 25 15 -6 -17 -32 -6 -35 29 -9
26 19 31 29 30 63 0 23 -4 49 -7 59 -7 15 -13 12 -46 -22z"/>
<path d="M2555 3696 c-28 -43 -92 -74 -188 -90 -102 -18 -111 -22 -178 -82
-49 -44 -66 -53 -119 -68 -24 -7 -24 -7 5 18 l30 27 -70 -7 c-162 -14 -262
-42 -351 -95 -61 -37 -88 -68 -108 -125 -11 -32 -24 -44 -92 -81 -43 -24 -94
-59 -112 -78 -28 -31 -32 -41 -32 -90 0 -66 29 -134 72 -170 36 -30 48 -31 48
-5 0 32 20 66 50 83 23 14 49 17 129 15 132 -4 133 -25 1 -42 -30 -4 -74 -12
-97 -18 -38 -9 -41 -12 -32 -30 19 -36 50 -41 103 -19 28 13 69 21 101 21 46
0 57 4 74 26 41 53 19 111 -54 138 -50 19 -105 76 -105 108 0 19 -4 20 -41 14
-49 -8 -45 6 11 34 36 19 38 21 28 48 -8 21 -8 35 3 57 15 32 86 79 134 89 24
5 20 1 -22 -24 -59 -34 -86 -68 -81 -102 5 -38 46 -35 102 9 48 37 51 38 140
40 50 1 99 2 108 2 10 1 37 18 60 39 23 20 39 30 36 22 -3 -8 -9 -23 -13 -32
-5 -13 0 -17 22 -20 26 -3 24 -5 -28 -29 -48 -23 -59 -33 -85 -85 -35 -71 -67
-95 -132 -102 -56 -5 -102 14 -128 53 -11 17 -25 25 -45 25 -25 0 -29 -4 -29
-27 1 -40 20 -60 88 -93 34 -16 65 -38 71 -48 5 -10 37 -33 69 -50 74 -40 157
-44 210 -12 22 13 33 16 30 8 -2 -7 -24 -23 -48 -36 -37 -19 -56 -23 -103 -19
-31 3 -75 14 -96 24 -35 18 -40 18 -44 4 -3 -9 -8 -23 -12 -32 -5 -14 7 -21
65 -39 155 -48 279 -6 310 105 10 37 10 51 -4 91 -21 61 -21 62 9 34 l25 -23
0 22 c0 27 -15 58 -43 89 -28 30 -6 28 46 -4 53 -33 72 -56 103 -122 46 -101
22 -251 -60 -374 -20 -31 -108 -124 -196 -208 -179 -170 -242 -253 -280 -370
-22 -65 -25 -93 -25 -215 0 -120 3 -150 23 -210 66 -197 183 -324 366 -396 39
-16 82 -28 96 -28 l25 0 -30 22 c-101 74 -218 221 -260 327 -66 168 -60 305
21 470 32 65 58 96 199 236 171 169 201 210 243 327 23 65 26 87 26 217 0 141
0 147 -33 229 -28 69 -45 95 -95 145 -34 34 -85 73 -114 87 l-53 26 54 12 c35
8 63 21 78 38 21 23 22 25 4 18 -11 -4 -47 -10 -80 -12 l-60 -4 40 35 c61 55
115 90 168 110 27 10 69 34 94 53 l46 35 -7 -43 c-21 -136 -80 -212 -201 -263
-15 -6 27 -35 51 -36 35 0 109 55 142 106 49 77 62 126 62 228 0 107 -9 131
-35 92z m-1061 -605 c3 -5 -8 -14 -24 -21 -17 -7 -40 -24 -50 -38 l-20 -25 0
24 c0 44 75 92 94 60z"/>
<path d="M3307 3678 c-18 -43 -88 -148 -111 -167 -14 -12 -16 -10 -16 12 0 58
-11 60 -45 10 -47 -69 -96 -112 -217 -191 -155 -103 -196 -167 -189 -294 0
-14 21 -52 45 -85 75 -100 83 -173 30 -280 -34 -70 -91 -118 -216 -182 -206
-107 -301 -194 -350 -324 -23 -61 -33 -192 -20 -257 10 -50 14 -44 31 49 21
111 80 210 170 284 25 21 102 66 171 100 206 101 274 155 323 255 50 101 52
125 31 383 -5 58 -2 83 9 105 20 38 71 89 127 127 143 97 217 176 251 269 22
60 24 149 5 193 l-13 30 -16 -37z"/>
<path d="M3340 3391 c-52 -54 -139 -131 -193 -170 -86 -64 -165 -146 -153
-158 6 -6 103 44 170 89 32 21 60 37 63 34 6 -6 -146 -115 -199 -142 -33 -17
-48 -31 -48 -44 0 -26 2 -26 96 13 217 89 323 182 362 313 13 46 16 150 4 158
-4 2 -50 -40 -102 -93z"/>
<path d="M4066 3384 c-102 -128 -267 -264 -446 -365 -89 -51 -93 -54 -65 -59
24 -4 31 -11 33 -33 2 -15 8 -27 13 -27 14 0 122 56 184 95 30 19 57 35 60 35
24 0 -190 -144 -229 -154 -17 -4 -34 -24 -54 -61 -17 -30 -26 -55 -22 -55 5 0
46 14 91 30 331 122 488 310 477 569 l-3 74 -39 -49z"/>
<path d="M4156 3246 c-5 -34 -2 -54 12 -83 11 -21 29 -69 41 -108 12 -38 26
-83 31 -100 16 -52 50 -257 50 -302 0 -40 2 -43 26 -43 l27 0 -7 86 c-7 100
-46 287 -76 371 -12 32 -25 69 -30 83 -12 36 -59 140 -64 140 -2 0 -7 -20 -10
-44z"/>
<path d="M1851 3258 c-73 -20 -105 -62 -57 -74 34 -8 64 3 82 31 25 38 15 53
-25 43z"/>
<path d="M2445 3248 c-11 -6 -22 -12 -24 -14 -2 -2 12 -27 31 -56 49 -74 74
-148 89 -260 14 -113 2 -226 -37 -343 -13 -38 -24 -71 -24 -72 0 -2 33 14 74
34 l74 36 10 81 c18 141 -12 295 -70 362 -36 41 -18 46 36 9 20 -14 39 -25 41
-25 9 0 -29 78 -62 127 -31 47 -106 133 -114 133 -2 0 -13 -6 -24 -12z"/>
<path d="M1927 3215 c-20 -42 -58 -68 -99 -68 -28 0 -29 -1 -12 -14 24 -18 85
-17 112 3 22 15 44 50 56 92 6 18 4 22 -16 22 -18 0 -29 -9 -41 -35z"/>
<path d="M3500 3218 c-96 -82 -295 -199 -432 -253 -41 -16 -68 -33 -68 -42 0
-24 63 -11 255 52 11 3 -2 -6 -29 -20 -48 -26 -188 -75 -214 -75 -8 0 -12 -6
-9 -12 8 -25 184 -8 295 28 147 48 231 140 247 271 10 76 -1 88 -45 51z"/>
<path d="M2280 3041 c0 -46 -47 -158 -76 -182 -8 -7 -26 -34 -40 -61 -27 -53
-76 -113 -107 -129 -17 -10 -16 -7 6 22 31 43 60 99 53 106 -3 3 -19 0 -37 -6
-18 -6 -49 -11 -69 -11 -32 0 -39 -4 -49 -29 -18 -41 -64 -81 -166 -144 -80
-49 -140 -97 -121 -97 3 0 41 9 82 20 42 12 81 19 87 17 6 -2 -25 -28 -69 -59
-170 -119 -264 -260 -264 -393 l1 -40 30 62 c33 67 91 139 141 175 31 22 31
21 -9 -33 -85 -113 -107 -182 -107 -324 0 -147 27 -226 117 -336 41 -51 154
-146 162 -137 2 2 -9 24 -24 48 -67 109 -93 212 -94 370 -1 108 3 136 26 210
48 155 105 229 358 465 106 100 159 171 190 260 27 78 27 180 0 232 l-20 38
-1 -44z"/>
<path d="M3495 2903 c-111 -41 -233 -65 -442 -89 -29 -4 -43 -10 -43 -20 0
-15 62 -20 195 -17 54 2 57 1 25 -7 -19 -6 -79 -11 -132 -12 -85 -1 -98 -4
-98 -18 0 -13 15 -20 69 -29 86 -14 244 -14 293 -1 86 24 163 101 183 183 8
30 6 31 -50 10z"/>
<path d="M4000 2894 c-87 -63 -330 -159 -450 -179 -57 -9 -64 -14 -50 -30 8
-10 8 -19 1 -34 -6 -11 -11 -22 -11 -25 0 -7 80 3 158 20 35 8 66 14 70 13 21
-1 -95 -39 -165 -53 -62 -13 -89 -24 -113 -46 -16 -15 -30 -31 -30 -35 0 -13
262 3 311 19 125 39 216 119 273 239 30 63 54 138 44 137 -2 -1 -19 -12 -38
-26z"/>
<path d="M933 2716 c-58 -90 -73 -211 -35 -301 20 -48 36 -115 27 -115 -2 0
-14 21 -27 47 -13 25 -43 67 -68 93 -43 44 -116 88 -127 76 -3 -3 0 -33 5 -66
22 -122 91 -219 187 -261 41 -18 43 -22 53 -76 6 -32 14 -67 18 -78 4 -10 -17
5 -47 35 -52 53 -149 110 -185 110 -13 0 -15 -6 -11 -29 23 -115 137 -239 245
-266 41 -11 45 -15 85 -97 l42 -85 -47 38 c-27 21 -72 46 -100 57 -58 21 -138
37 -138 27 0 -20 49 -97 89 -138 65 -68 169 -116 251 -117 14 0 30 -8 37 -19
6 -10 32 -44 58 -75 l46 -57 -59 30 c-71 36 -174 56 -223 44 l-33 -9 48 -52
c90 -96 222 -148 320 -125 40 9 48 8 63 -9 10 -11 45 -41 78 -66 33 -25 53
-43 44 -39 -47 16 -145 29 -187 24 -65 -9 -122 -26 -122 -37 0 -16 79 -68 136
-90 75 -27 188 -27 253 1 l48 20 76 -41 c42 -23 77 -43 77 -44 0 -2 -29 -4
-64 -5 -36 -1 -77 -6 -93 -10 -50 -15 -123 -55 -120 -66 8 -24 121 -58 197
-59 84 0 136 14 196 54 l41 27 83 -27 82 -27 -63 -13 c-79 -16 -145 -48 -183
-89 -16 -17 -28 -32 -25 -34 14 -10 107 -27 146 -27 76 0 178 37 231 85 46 40
48 41 96 33 37 -7 51 -6 57 4 14 22 11 26 -34 32 -41 6 -43 8 -55 58 -22 95
-86 171 -192 230 -69 38 -90 41 -90 13 0 -65 74 -182 148 -235 32 -22 54 -40
50 -40 -12 0 -111 27 -168 47 l-55 18 -11 65 c-13 84 -42 147 -90 200 -36 40
-118 100 -136 100 -12 0 -9 -59 6 -115 19 -72 48 -124 97 -173 l43 -42 -40 16
c-21 9 -74 34 -116 56 l-76 39 10 30 c6 17 8 66 6 109 -4 65 -11 92 -41 152
-20 40 -51 88 -70 106 l-35 34 -11 -52 c-20 -95 -6 -197 40 -274 12 -20 20
-39 17 -41 -2 -3 -41 25 -87 62 -58 46 -81 71 -77 82 2 9 12 36 21 61 26 69
17 197 -19 277 -48 105 -62 106 -91 6 -21 -72 -19 -172 5 -235 11 -28 18 -53
16 -55 -8 -8 -146 169 -146 188 0 5 11 25 24 42 13 18 34 63 46 101 25 78 24
144 -6 234 -16 49 -18 51 -34 37 -10 -9 -33 -44 -51 -78 -31 -58 -33 -69 -34
-159 0 -53 -3 -94 -6 -92 -7 4 -73 136 -88 175 -9 24 -5 32 34 73 25 25 53 63
64 83 35 71 52 199 31 248 -7 18 -13 15 -63 -38 -59 -61 -97 -140 -97 -202 0
-65 -17 -43 -38 50 -12 51 -22 98 -22 103 0 5 13 15 30 22 76 31 158 164 167
271 5 55 4 59 -13 53 -83 -31 -184 -154 -184 -225 0 -11 -4 -17 -10 -14 -19
12 -10 78 21 140 24 50 31 76 31 127 0 67 -21 160 -44 190 -12 16 -15 15 -35
-16z"/>
<path d="M4026 2719 c-46 -109 -46 -224 -2 -309 19 -36 26 -64 25 -102 0 -56
-2 -54 -33 32 -9 25 -33 65 -54 89 l-38 44 -38 -52 -38 -51 30 -53 c26 -47
109 -128 143 -139 10 -3 8 -27 -11 -113 l-24 -109 -16 75 c-21 96 -47 144
-106 199 l-48 45 -9 -45 c-19 -96 25 -233 100 -308 24 -23 43 -45 43 -48 0
-10 -65 -146 -86 -180 l-19 -31 0 101 c0 91 -3 106 -28 156 -16 30 -38 65 -50
78 l-21 22 -12 -30 c-7 -16 -18 -57 -25 -90 -18 -95 14 -222 74 -287 l20 -22
-40 -53 c-22 -29 -59 -73 -81 -98 l-40 -45 19 55 c26 77 25 193 -2 265 -11 30
-23 55 -27 55 -13 0 -54 -73 -73 -128 -25 -74 -25 -166 2 -244 l22 -62 -44
-37 c-57 -49 -133 -105 -127 -93 2 5 17 36 33 69 26 54 29 71 29 162 1 125 -9
141 -54 93 -88 -94 -131 -243 -100 -349 8 -28 6 -36 -8 -47 -21 -15 -177 -94
-186 -94 -4 0 9 19 28 43 20 24 47 69 62 101 27 59 45 176 27 176 -15 0 -84
-48 -125 -87 -48 -46 -96 -153 -100 -223 l-3 -54 -85 -27 c-47 -15 -101 -30
-120 -34 l-35 -7 47 32 c82 54 162 179 156 241 l-3 30 -70 -35 c-38 -19 -87
-52 -109 -73 -47 -46 -93 -125 -101 -174 -6 -34 -10 -37 -47 -43 -35 -6 -38
-9 -27 -22 8 -10 26 -14 54 -13 35 2 49 -3 86 -33 100 -80 204 -105 328 -76
28 6 51 15 51 19 0 14 -53 60 -95 81 -22 12 -69 29 -105 38 -65 17 -65 17 -30
25 19 4 54 16 77 26 l43 18 43 -28 c60 -41 112 -55 197 -55 56 0 90 5 135 23
33 13 64 27 69 32 25 22 -129 79 -219 80 -36 1 -65 3 -65 4 0 2 34 22 76 44
l76 41 59 -21 c89 -32 202 -24 286 20 34 18 71 43 83 56 l21 22 -65 17 c-79
19 -123 20 -199 2 -33 -8 -55 -10 -50 -6 4 4 38 32 74 63 l67 55 43 -10 c93
-24 222 26 311 120 l52 56 -28 9 c-42 14 -160 -8 -223 -43 -29 -15 -53 -26
-53 -23 0 2 20 29 45 60 25 30 48 60 53 67 4 7 38 18 76 25 88 16 149 47 207
108 40 41 89 118 89 139 0 8 -62 -4 -120 -23 -25 -8 -70 -32 -102 -54 l-56
-38 38 81 c37 80 39 82 89 97 66 21 132 69 175 128 36 50 75 148 63 160 -20
19 -148 -53 -205 -116 l-33 -36 7 40 c15 97 21 109 75 134 59 27 131 112 154
181 20 60 30 140 18 140 -17 0 -98 -58 -135 -96 -20 -22 -45 -57 -57 -79 l-21
-40 0 37 c0 20 4 39 9 43 13 7 41 106 41 142 0 49 -27 133 -59 181 l-30 47
-15 -36z"/>
<path d="M2986 2675 c-3 -9 0 -18 7 -20 17 -6 106 -33 147 -44 31 -9 29 -10
-20 -5 -30 2 -75 10 -98 16 -36 9 -45 9 -53 -3 -12 -20 -4 -25 99 -58 168 -55
276 -40 357 50 l40 44 -195 6 c-107 3 -202 9 -210 12 -43 16 -68 16 -74 2z"/>
<path d="M2935 2549 c-9 -14 -12 -12 75 -54 54 -27 65 -35 40 -30 -19 4 -56
16 -82 27 -46 20 -78 19 -78 -1 0 -14 116 -76 187 -100 106 -36 178 -24 237
38 33 35 35 34 -69 51 -89 16 -154 32 -230 59 -68 24 -72 25 -80 10z"/>
<path d="M3383 2467 c0 -12 -3 -29 -7 -38 -6 -13 5 -18 66 -27 125 -20 126
-21 11 -17 -106 4 -115 3 -148 -19 -20 -14 -32 -27 -28 -29 16 -9 121 -36 186
-46 132 -23 260 23 354 127 56 61 56 75 1 65 -53 -10 -350 -10 -399 -1 -33 6
-37 4 -36 -15z"/>
<path d="M2841 2446 c-9 -11 0 -23 50 -60 75 -56 65 -59 -22 -7 -63 38 -93 43
-87 13 5 -23 136 -119 187 -137 60 -20 117 -19 170 5 37 17 41 22 31 35 -7 8
-17 15 -22 15 -14 0 -205 97 -247 126 -42 28 -45 29 -60 10z"/>
<path d="M2706 2362 c-3 -4 13 -29 35 -55 50 -58 39 -61 -18 -6 -32 30 -47 39
-63 34 -11 -3 -20 -10 -20 -14 0 -4 26 -36 57 -71 63 -69 135 -110 195 -110
38 0 88 17 88 30 0 4 -26 27 -57 50 -32 24 -86 67 -120 97 -58 50 -86 63 -97
45z"/>
<path d="M3223 2296 c0 -11 -3 -29 -7 -38 -7 -15 3 -23 55 -45 79 -34 64 -41
-27 -10 -67 22 -71 22 -113 6 l-45 -16 40 -25 c130 -81 260 -108 363 -77 39
12 142 78 148 95 2 5 -29 15 -69 22 -86 15 -220 54 -293 87 l-53 23 1 -22z"/>
<path d="M2580 2300 c-13 -8 -12 -15 8 -51 29 -56 21 -62 -15 -10 -31 45 -33
46 -56 29 -15 -12 -15 -15 1 -48 28 -58 112 -136 156 -144 36 -7 96 0 96 11 0
3 -28 39 -62 82 -33 42 -71 91 -82 108 -23 36 -25 37 -46 23z"/>
<path d="M2431 2204 c-17 -14 -31 -31 -31 -38 0 -25 58 -68 99 -73 38 -5 41
-4 34 13 -14 33 -63 124 -67 124 -3 0 -18 -12 -35 -26z"/>
<path d="M2138 2134 l-43 -58 1 -125 c0 -142 19 -222 81 -345 19 -37 33 -70
31 -72 -3 -2 -23 28 -46 66 -44 73 -88 192 -97 262 -3 24 -9 59 -12 78 l-5 35
-14 -45 c-18 -59 -18 -185 1 -257 68 -264 329 -473 590 -472 50 0 57 2 41 12
-89 57 -117 78 -169 126 -129 120 -254 313 -296 461 -18 61 -23 85 -36 185 -3
22 1 76 9 120 8 44 13 81 11 83 -2 2 -23 -22 -47 -54z"/>
<path d="M3030 2168 c0 -6 -9 -21 -20 -33 l-20 -22 60 -44 c77 -56 60 -64 -21
-10 -53 35 -69 41 -115 41 -30 0 -54 -3 -54 -6 0 -12 77 -77 146 -123 115 -77
228 -90 343 -40 58 24 63 35 24 50 -58 21 -171 83 -255 140 -49 33 -88 54 -88
47z"/>
<path d="M2371 2078 c14 -67 84 -199 128 -245 57 -58 119 -85 207 -91 41 -3
74 -1 74 3 0 4 -26 35 -57 69 -31 33 -82 99 -113 146 -55 84 -56 85 -98 86
-23 0 -42 0 -42 -2 0 -1 16 -33 36 -71 l36 -68 -32 35 c-17 19 -40 53 -51 75
-21 40 -77 105 -90 105 -4 0 -3 -19 2 -42z"/>
<path d="M2807 2061 c-3 -11 -17 -22 -37 -26 l-32 -7 58 -60 c66 -67 38 -61
-35 7 -29 27 -67 50 -104 63 l-57 19 27 -46 c41 -71 130 -158 192 -189 46 -22
69 -27 131 -27 76 0 160 18 160 35 0 4 -24 23 -52 40 -66 41 -96 65 -179 146
-57 55 -67 62 -72 45z"/>
<path d="M2315 2039 c-4 -13 -8 -36 -7 -50 1 -34 66 -204 96 -249 44 -67 49
-87 12 -45 -30 34 -91 142 -123 220 -5 13 -9 -14 -11 -78 -3 -91 -1 -102 25
-150 37 -70 136 -168 203 -202 58 -30 140 -55 178 -55 22 0 21 2 -13 52 -42
61 -76 133 -95 201 -9 34 -21 52 -39 62 -65 34 -150 147 -193 254 -23 58 -26
62 -33 40z"/>
<path d="M2543 1003 c-10 -15 -42 -61 -70 -102 -29 -40 -53 -77 -53 -82 0 -5
16 -9 36 -9 41 0 40 5 4 -94 -11 -32 -20 -60 -18 -61 4 -4 137 181 145 201 4
10 -4 14 -31 14 -35 0 -36 1 -30 27 4 15 15 49 25 77 22 58 18 70 -8 29z"/>
<path d="M2310 786 c-55 -36 -67 -54 -48 -73 15 -14 20 -12 63 20 25 20 51 37
57 39 18 6 1 38 -19 37 -10 0 -34 -11 -53 -23z"/>
<path d="M2606 794 c-4 -9 -5 -18 -4 -19 2 -1 17 -7 35 -14 17 -7 41 -23 54
-37 12 -13 28 -24 35 -24 15 0 30 40 17 49 -85 61 -126 74 -137 45z"/>
</g>
</svg>
